<svg width="31" height="52" viewBox="0 0 31 52" fill="none" xmlns="http://www.w3.org/2000/svg">
<path d="M11.3735 16.9608C13.3466 16.9608 15.031 17.6597 16.4282 19.0565C17.8251 20.4541 18.5244 22.139 18.5244 24.1112V38.0429C18.5244 40.016 17.8251 41.7008 16.4282 43.0976C15.031 44.4957 13.3466 45.1938 11.3735 45.1938C9.77086 45.1938 8.35331 44.7219 7.12003 43.7758C6.58568 43.3661 6.13411 42.9131 5.76411 42.4199V45.1938H4.28472V38.7209C4.28472 38.6812 4.28472 38.619 4.28472 38.536C4.24281 38.3305 4.22329 38.166 4.22329 38.0429V24.1112C4.22329 23.9886 4.24281 23.8244 4.28472 23.6188C4.28472 23.5366 4.28472 23.4752 4.28472 23.4335V2.16641H5.76411V19.7345C6.13411 19.242 6.58568 18.8102 7.12003 18.4404C8.35331 17.4538 9.77086 16.9608 11.3735 16.9608ZM11.3735 43.7146C12.9349 43.7146 14.2709 43.1597 15.3803 42.0497C16.4905 40.9403 17.0452 39.6053 17.0452 38.0427V24.111C17.0452 22.5496 16.4905 21.2139 15.3803 20.1043C14.2709 18.9953 12.9349 18.4404 11.3735 18.4404C9.9344 18.4404 8.6814 18.924 7.61309 19.8885C6.54376 20.8551 5.92826 22.0773 5.76411 23.5567V38.659C5.92826 40.098 6.54376 41.3004 7.61309 42.2652C8.68119 43.2318 9.9344 43.7146 11.3735 43.7146Z" fill="url(#paint0_linear)"/>
<path d="M25.907 20.7432H26.603V41.2073C26.603 43.436 25.8139 45.3402 24.2361 46.9184C22.6565 48.4975 20.7528 49.287 18.5244 49.287C16.2955 49.287 14.3907 48.4973 12.8137 46.9184C11.2346 45.3402 10.4453 43.436 10.4453 41.2073V17.3877H12.1168V41.2073C12.1168 42.9725 12.7434 44.4809 13.997 45.7347C15.2508 46.9883 16.759 47.6149 18.5244 47.6149C20.2887 47.6149 21.7977 46.9881 23.0517 45.7347C24.3051 44.4807 24.9319 42.9725 24.9319 41.2073V20.7432H25.907Z" fill="url(#paint1_linear)"/>
<path d="M23.605 20.7432H21.9415V41.5642H23.605V20.7432Z" fill="url(#paint2_linear)"/>
<path d="M23.605 18.9414H21.9415V20.246H23.605V18.9414Z" fill="url(#paint3_linear)"/>
<path d="M26.603 18.9414H24.9399V20.246H26.603V18.9414Z" fill="url(#paint4_linear)"/>
<path d="M30.0236 51.454H0.802662V0H30.0236V51.454V51.454ZM2.29418 49.9621H28.5323V1.4909H2.29418V49.9621Z" fill="url(#paint5_linear)"/>
<defs>
<linearGradient id="paint0_linear" x1="4.22333" y1="23.6801" x2="18.5243" y2="23.6801" gradientUnits="userSpaceOnUse">
<stop stop-color="white"/>
<stop offset="0.9133" stop-color="#BFC4C4"/>
</linearGradient>
<linearGradient id="paint1_linear" x1="10.4452" y1="33.3375" x2="26.603" y2="33.3375" gradientUnits="userSpaceOnUse">
<stop stop-color="white"/>
<stop offset="0.9133" stop-color="#BFC4C4"/>
</linearGradient>
<linearGradient id="paint2_linear" x1="21.9416" y1="31.1537" x2="23.605" y2="31.1537" gradientUnits="userSpaceOnUse">
<stop stop-color="white"/>
<stop offset="0.9133" stop-color="#BFC4C4"/>
</linearGradient>
<linearGradient id="paint3_linear" x1="21.9416" y1="19.5937" x2="23.605" y2="19.5937" gradientUnits="userSpaceOnUse">
<stop stop-color="white"/>
<stop offset="0.9133" stop-color="#BFC4C4"/>
</linearGradient>
<linearGradient id="paint4_linear" x1="24.94" y1="19.5937" x2="26.603" y2="19.5937" gradientUnits="userSpaceOnUse">
<stop stop-color="white"/>
<stop offset="0.9133" stop-color="#BFC4C4"/>
</linearGradient>
<linearGradient id="paint5_linear" x1="0.802621" y1="25.727" x2="30.0237" y2="25.727" gradientUnits="userSpaceOnUse">
<stop stop-color="white"/>
<stop offset="0.9133" stop-color="#BFC4C4"/>
</linearGradient>
</defs>
</svg>
